{"title":"Battleground.2012.DVDRip.XviD- SPRiNTER","uid":6894416,"size":734880189,"categoryP":"video","categoryS":"movies","magnet":"?xt=urn:btih:f4884ba5c0c316cca34007b9285571bf8403af00&amp;dn=Battleground.2012.DVDRip.XviD-+SPRiNTER&amp;tr=udp%3A%2F%2Ftracker.openbittorrent.com%3A80&amp;tr=udp%3A%2F%2Fopen.demonii.com%3A1337&amp;tr=udp%3A%2F%2Ftracker.coppersurfer.tk%3A6969&amp;tr=udp%3A%2F%2Fexodus.desync.com%3A6969","seeders":1,"leechers":0,"uploader":"LegendET","files":4,"time":1324141485,"description":"[center][img]http://img31.imageshack.us/img31/6424/csjlzat1.jpg[/img]\nARTiCHOKE\n\nSPRiNTER proudly presents\n\nBattleground.2012.DVDRip.XviD-SPRiNTER\n\nDate: 2011.12 &lt;a href=&quot;\nhttp://www.imdb.com/title/tt1754506/&quot; rel=&quot;nofollow&quot; target=&quot;_NEW&quot;&gt;\nhttp://www.imdb.com/title/tt1754506/&lt;/a&gt;\n\nRelease notes\n\nEnjoy!\n\nNews\n\nWe are currently looking for:\nLooking for talented xvid-encoders with time &amp; addiction \nSuppliers who can provide pre-retail or retail dvds with decent upload!\n50Mbit+ dump providers with 1TB+ free space\n\n&lt;a class=&quot;__cf_email__&quot; href=&quot;/cdn-cgi/l/email-protection&quot; data-cfemail=&quot;ec9f9c9e858298899eac84999f84c28f8381&quot;&gt;[email&amp;#160;protected]&lt;/a&gt;&lt;script cf-hash='f9e31' type=&quot;text/javascript&quot;&gt;\n/* &lt;![CDATA[ */!function(){try{var t=&quot;currentScript&quot;in document?document.currentScript:function(){for(var t=document.getElementsByTagName(&quot;script&quot;),e=t.length;e--;)if(t[e].getAttribute(&quot;cf-hash&quot;))return t[e]}();if(t&amp;&amp;t.previousSibling){var e,r,n,i,c=t.previousSibling,a=c.getAttribute(&quot;data-cfemail&quot;);if(a){for(e=&quot;&quot;,r=parseInt(a.substr(0,2),16),n=2;a.length-n;n+=2)i=parseInt(a.substr(n,2),16)^r,e+=String.fromCharCode(i);e=document.createTextNode(e),c.parentNode.replaceChild(e,c)}}}catch(u){}}();/* ]]&gt; */&lt;/script&gt;\n\nGreetings\n\nNTX FiCO HNR CiNEFiLE AEN HUMANiSM TASTE 0MNiDVD\n\nDetails\n\nFormat: AVI\nFormat/Info: Audio Video Interleave\nFile size: 701 MiB\nDuration: 1h 25mn\nOverall bit rate mode: Variable\nOverall bit rate: 1 147 Kbps\nWriting application: VirtualDubMod 1.5.10.2 (build 2540/release)\nWriting library: VirtualDubMod build 2540/release\n\nVideo\nID: 0\nFormat: MPEG-4 Visual\nFormat profile: Advanced Simple@L5\nFormat settings, BVOP: 2\nFormat settings, QPel: No\nFormat settings, GMC: No warppoints\nFormat settings, Matrix: Default (H.263)\nCodec ID: XVID\nCodec ID/Hint: XviD\nDuration: 1h 25mn\nBit rate: 995 Kbps\nWidth: 608 pixels\nHeight: 256 pixels\nDisplay aspect ratio: 2.40:1\nFrame rate: 25.000 fps\nColor space: YUV\nChroma subsampling: 4:2:0\nBit depth: 8 bits\nScan type: Progressive\nCompression mode: Lossy\nBits/(Pixel*Frame): 0.256\nStream size: 608 MiB (87%)\nWriting library: XviD 61\n\nAudio\nID: 1\nFormat: MPEG Audio\nFormat version: Version 1\nFormat profile: Layer 3\nMode: Joint stereo\nCodec ID: 55\nCodec ID/Hint: MP3\nDuration: 1h 25mn\nBit rate mode: Variable\nBit rate: 140 Kbps\nMinimum bit rate: 128 Kbps\nChannel(s): 2 channels\nSampling rate: 48.0 KHz\nCompression mode: Lossy\nStream size: 85.3 MiB (12%)\nAlignment: Aligned on interleaves\nInterleave, duration: 24 ms (0.60 video frame)\nInterleave, preload duration: 461 ms\nWriting library: LAME3.95\nEncoding settings: -m j -V 4 -q 3 -lowpass 18 --vbr-old -b 128[/center]","torrent":{"xt":"urn:btih:f4884ba5c0c316cca34007b9285571bf8403af00","amp;dn":"Battleground.2012.DVDRip.XviD-+SPRiNTER","amp;tr":["udp%3A%2F%2Ftracker.openbittorrent.com%3A80","udp%3A%2F%2Fopen.demonii.com%3A1337","udp%3A%2F%2Ftracker.coppersurfer.tk%3A6969","udp%3A%2F%2Fexodus.desync.com%3A6969"],"infoHash":"f4884ba5c0c316cca34007b9285571bf8403af00","infoHashBuffer":{"type":"Buffer","data":[244,136,75,165,192,195,22,204,163,64,7,185,40,85,113,191,132,3,175,0]},"announce":[],"urlList":[]}}